<mxfile host="www.draw.io" modified="2019-12-20T07:54:38.882Z" agent="Mozilla/5.0 (Macintosh; Intel Mac OS X 10_13_6) AppleWebKit/537.36 (KHTML, like Gecko) Chrome/79.0.3945.79 Safari/537.36" etag="I9YfmQXcbGkW69KTpCht" version="12.4.3" type="github" pages="1">
  <diagram name="Page-1" id="74e2e168-ea6b-b213-b513-2b3c1d86103e">
    <mxGraphModel dx="946" dy="1388" grid="1" gridSize="10" guides="1" tooltips="1" connect="1" arrows="1" fold="1" page="1" pageScale="1" pageWidth="1100" pageHeight="850" background="#ffffff" math="0" shadow="0">
      <root>
        <mxCell id="0"/>
        <mxCell id="1" parent="0"/>
        <mxCell id="77e6c97f196da883-1" value="网上申请业务流程" style="swimlane;html=1;childLayout=stackLayout;startSize=20;rounded=0;shadow=0;labelBackgroundColor=none;strokeWidth=1;fontFamily=Verdana;fontSize=8;align=center;" parent="1" vertex="1" treatAsSingle="0">
          <mxGeometry x="140" y="-800" width="410" height="630" as="geometry">
            <mxRectangle x="190" y="-120" width="50" height="40" as="alternateBounds"/>
          </mxGeometry>
        </mxCell>
        <mxCell id="77e6c97f196da883-39" style="edgeStyle=orthogonalEdgeStyle;rounded=1;html=1;labelBackgroundColor=none;startArrow=none;startFill=0;startSize=5;endArrow=classicThin;endFill=1;endSize=5;jettySize=auto;orthogonalLoop=1;strokeWidth=1;fontFamily=Verdana;fontSize=8" parent="77e6c97f196da883-1" edge="1">
          <mxGeometry relative="1" as="geometry">
            <mxPoint x="440" y="690" as="sourcePoint"/>
          </mxGeometry>
        </mxCell>
        <mxCell id="77e6c97f196da883-40" style="edgeStyle=orthogonalEdgeStyle;rounded=1;html=1;labelBackgroundColor=none;startArrow=none;startFill=0;startSize=5;endArrow=classicThin;endFill=1;endSize=5;jettySize=auto;orthogonalLoop=1;strokeWidth=1;fontFamily=Verdana;fontSize=8" parent="77e6c97f196da883-1" edge="1">
          <mxGeometry relative="1" as="geometry">
            <mxPoint x="610" y="690" as="sourcePoint"/>
          </mxGeometry>
        </mxCell>
        <mxCell id="107ba76e4e335f99-1" style="edgeStyle=orthogonalEdgeStyle;rounded=1;html=1;labelBackgroundColor=none;startArrow=none;startFill=0;startSize=5;endArrow=classicThin;endFill=1;endSize=5;jettySize=auto;orthogonalLoop=1;strokeWidth=1;fontFamily=Verdana;fontSize=8" parent="77e6c97f196da883-1" edge="1">
          <mxGeometry relative="1" as="geometry">
            <mxPoint x="450" y="450" as="sourcePoint"/>
          </mxGeometry>
        </mxCell>
        <mxCell id="107ba76e4e335f99-3" style="edgeStyle=orthogonalEdgeStyle;rounded=1;html=1;labelBackgroundColor=none;startArrow=none;startFill=0;startSize=5;endArrow=classicThin;endFill=1;endSize=5;jettySize=auto;orthogonalLoop=1;strokeColor=#000000;strokeWidth=1;fontFamily=Verdana;fontSize=8;fontColor=#000000;" parent="77e6c97f196da883-1" edge="1">
          <mxGeometry relative="1" as="geometry">
            <mxPoint x="450" y="610" as="targetPoint"/>
          </mxGeometry>
        </mxCell>
        <mxCell id="77e6c97f196da883-2" value="客户" style="swimlane;html=1;startSize=20;" parent="77e6c97f196da883-1" vertex="1" treatAsSingle="0">
          <mxGeometry y="20" width="160" height="610" as="geometry">
            <mxRectangle y="20" width="30" height="790" as="alternateBounds"/>
          </mxGeometry>
        </mxCell>
        <mxCell id="FA39KNH25mhsjMmbrUKY-5" value="" style="endArrow=classic;html=1;exitX=0.367;exitY=1.067;exitDx=0;exitDy=0;exitPerimeter=0;" parent="77e6c97f196da883-2" source="FA39KNH25mhsjMmbrUKY-1" edge="1">
          <mxGeometry width="50" height="50" relative="1" as="geometry">
            <mxPoint y="690" as="sourcePoint"/>
            <mxPoint x="63" y="60" as="targetPoint"/>
            <Array as="points"/>
          </mxGeometry>
        </mxCell>
        <mxCell id="FA39KNH25mhsjMmbrUKY-1" value="线上申请" style="rounded=1;whiteSpace=wrap;html=1;direction=east;perimeter=rectanglePerimeter;arcSize=50;" parent="77e6c97f196da883-2" vertex="1">
          <mxGeometry x="30" y="50" width="90" height="40" as="geometry"/>
        </mxCell>
        <mxCell id="FA39KNH25mhsjMmbrUKY-22" value="支付" style="rounded=1;whiteSpace=wrap;html=1;shadow=0;labelBackgroundColor=none;strokeWidth=1;fontFamily=Verdana;fontSize=8;align=center;" parent="77e6c97f196da883-2" vertex="1">
          <mxGeometry x="30" y="210" width="100" height="40" as="geometry"/>
        </mxCell>
        <mxCell id="FA39KNH25mhsjMmbrUKY-30" value="任务结束&lt;br&gt;" style="rounded=1;whiteSpace=wrap;html=1;arcSize=50;fillOpacity=100;flipV=1;" parent="77e6c97f196da883-2" vertex="1">
          <mxGeometry x="35" y="340" width="90" height="40" as="geometry"/>
        </mxCell>
        <mxCell id="FA39KNH25mhsjMmbrUKY-12" value="" style="endArrow=classic;html=1;" parent="77e6c97f196da883-1" source="FA39KNH25mhsjMmbrUKY-1" target="77e6c97f196da883-12" edge="1">
          <mxGeometry width="50" height="50" relative="1" as="geometry">
            <mxPoint y="670" as="sourcePoint"/>
            <mxPoint x="50" y="620" as="targetPoint"/>
          </mxGeometry>
        </mxCell>
        <mxCell id="FA39KNH25mhsjMmbrUKY-27" value="" style="endArrow=classic;html=1;entryX=0;entryY=0.5;entryDx=0;entryDy=0;exitX=0.5;exitY=1;exitDx=0;exitDy=0;rounded=0;" parent="77e6c97f196da883-1" source="FA39KNH25mhsjMmbrUKY-22" target="FA39KNH25mhsjMmbrUKY-25" edge="1">
          <mxGeometry width="50" height="50" relative="1" as="geometry">
            <mxPoint x="70" y="280" as="sourcePoint"/>
            <mxPoint x="120" y="230" as="targetPoint"/>
            <Array as="points">
              <mxPoint x="80" y="335"/>
            </Array>
          </mxGeometry>
        </mxCell>
        <mxCell id="FA39KNH25mhsjMmbrUKY-31" value="" style="endArrow=classic;html=1;rounded=0;" parent="77e6c97f196da883-1" source="FA39KNH25mhsjMmbrUKY-25" target="FA39KNH25mhsjMmbrUKY-30" edge="1">
          <mxGeometry width="50" height="50" relative="1" as="geometry">
            <mxPoint x="180" y="410" as="sourcePoint"/>
            <mxPoint x="230" y="360" as="targetPoint"/>
            <Array as="points">
              <mxPoint x="240" y="380"/>
            </Array>
          </mxGeometry>
        </mxCell>
        <mxCell id="FA39KNH25mhsjMmbrUKY-43" value="" style="endArrow=classic;html=1;rounded=0;" parent="77e6c97f196da883-1" source="FA39KNH25mhsjMmbrUKY-41" target="FA39KNH25mhsjMmbrUKY-30" edge="1">
          <mxGeometry width="50" height="50" relative="1" as="geometry">
            <mxPoint x="70" y="530" as="sourcePoint"/>
            <mxPoint x="120" y="480" as="targetPoint"/>
            <Array as="points">
              <mxPoint x="80" y="580"/>
            </Array>
          </mxGeometry>
        </mxCell>
        <mxCell id="FA39KNH25mhsjMmbrUKY-45" value="是" style="endArrow=classic;html=1;" parent="77e6c97f196da883-1" source="FA39KNH25mhsjMmbrUKY-23" target="FA39KNH25mhsjMmbrUKY-22" edge="1">
          <mxGeometry width="50" height="50" relative="1" as="geometry">
            <mxPoint x="130" y="200" as="sourcePoint"/>
            <mxPoint x="180" y="150" as="targetPoint"/>
          </mxGeometry>
        </mxCell>
        <mxCell id="77e6c97f196da883-4" value="系统" style="swimlane;html=1;startSize=20;" parent="77e6c97f196da883-1" vertex="1" treatAsSingle="0">
          <mxGeometry x="160" y="20" width="250" height="610" as="geometry"/>
        </mxCell>
        <mxCell id="77e6c97f196da883-12" value="审核作业" style="rounded=1;whiteSpace=wrap;html=1;shadow=0;labelBackgroundColor=none;strokeWidth=1;fontFamily=Verdana;fontSize=8;align=center;" parent="77e6c97f196da883-4" vertex="1">
          <mxGeometry x="30" y="50" width="100" height="40" as="geometry"/>
        </mxCell>
        <mxCell id="77e6c97f196da883-13" value="问题件" style="rhombus;whiteSpace=wrap;html=1;rounded=0;shadow=0;labelBackgroundColor=none;strokeWidth=1;fontFamily=Verdana;fontSize=8;align=center;" parent="77e6c97f196da883-4" vertex="1">
          <mxGeometry x="40" y="110" width="80" height="60" as="geometry"/>
        </mxCell>
        <mxCell id="77e6c97f196da883-29" style="edgeStyle=orthogonalEdgeStyle;html=1;labelBackgroundColor=none;startArrow=none;startFill=0;endArrow=classicThin;endFill=1;jettySize=auto;orthogonalLoop=1;strokeWidth=1;fontFamily=Verdana;fontSize=8;rounded=0;" parent="77e6c97f196da883-4" source="77e6c97f196da883-12" target="77e6c97f196da883-13" edge="1">
          <mxGeometry relative="1" as="geometry"/>
        </mxCell>
        <mxCell id="77e6c97f196da883-30" value="否" style="edgeStyle=orthogonalEdgeStyle;rounded=1;html=1;labelBackgroundColor=none;startArrow=none;startFill=0;startSize=5;endArrow=classicThin;endFill=1;endSize=5;jettySize=auto;orthogonalLoop=1;strokeWidth=1;fontFamily=Verdana;fontSize=8" parent="77e6c97f196da883-4" source="77e6c97f196da883-13" target="FA39KNH25mhsjMmbrUKY-23" edge="1">
          <mxGeometry relative="1" as="geometry"/>
        </mxCell>
        <mxCell id="FA39KNH25mhsjMmbrUKY-19" value="处理问题件&lt;br&gt;" style="rounded=1;whiteSpace=wrap;html=1;shadow=0;labelBackgroundColor=none;strokeWidth=1;fontFamily=Verdana;fontSize=8;align=center;" parent="77e6c97f196da883-4" vertex="1">
          <mxGeometry x="30" y="370" width="100" height="40" as="geometry"/>
        </mxCell>
        <mxCell id="FA39KNH25mhsjMmbrUKY-20" value="" style="endArrow=classic;html=1;rounded=0;" parent="77e6c97f196da883-4" source="77e6c97f196da883-13" target="FA39KNH25mhsjMmbrUKY-19" edge="1" treatAsSingle="0">
          <mxGeometry width="50" height="50" as="geometry">
            <mxPoint x="130" y="170" as="sourcePoint"/>
            <mxPoint x="280" y="120" as="targetPoint"/>
            <Array as="points">
              <mxPoint x="170" y="140"/>
              <mxPoint x="170" y="390"/>
            </Array>
          </mxGeometry>
        </mxCell>
        <mxCell id="FA39KNH25mhsjMmbrUKY-21" value="是&lt;br&gt;" style="text;html=1;align=center;verticalAlign=middle;resizable=0;points=[];;labelBackgroundColor=#ffffff;" parent="FA39KNH25mhsjMmbrUKY-20" vertex="1" connectable="0">
          <mxGeometry x="-0.1333" relative="1" as="geometry">
            <mxPoint as="offset"/>
          </mxGeometry>
        </mxCell>
        <mxCell id="FA39KNH25mhsjMmbrUKY-23" value="需支付&lt;br&gt;" style="rhombus;whiteSpace=wrap;html=1;rounded=0;shadow=0;labelBackgroundColor=none;strokeWidth=1;fontFamily=Verdana;fontSize=8;align=center;" parent="77e6c97f196da883-4" vertex="1">
          <mxGeometry x="40" y="200" width="80" height="60" as="geometry"/>
        </mxCell>
        <mxCell id="FA39KNH25mhsjMmbrUKY-25" value="批改完成" style="rounded=1;whiteSpace=wrap;html=1;shadow=0;labelBackgroundColor=none;strokeWidth=1;fontFamily=Verdana;fontSize=8;align=center;" parent="77e6c97f196da883-4" vertex="1">
          <mxGeometry x="30" y="295" width="100" height="40" as="geometry"/>
        </mxCell>
        <mxCell id="FA39KNH25mhsjMmbrUKY-26" value="否&lt;br&gt;" style="endArrow=classic;html=1;" parent="77e6c97f196da883-4" source="FA39KNH25mhsjMmbrUKY-23" target="FA39KNH25mhsjMmbrUKY-25" edge="1">
          <mxGeometry width="50" height="50" relative="1" as="geometry">
            <mxPoint x="-160" y="650" as="sourcePoint"/>
            <mxPoint x="-110" y="600" as="targetPoint"/>
          </mxGeometry>
        </mxCell>
        <mxCell id="FA39KNH25mhsjMmbrUKY-32" value="继续处理" style="rhombus;whiteSpace=wrap;html=1;rounded=0;" parent="77e6c97f196da883-4" vertex="1">
          <mxGeometry x="40" y="430" width="80" height="80" as="geometry"/>
        </mxCell>
        <mxCell id="FA39KNH25mhsjMmbrUKY-39" value="" style="endArrow=classic;html=1;" parent="77e6c97f196da883-4" source="FA39KNH25mhsjMmbrUKY-19" target="FA39KNH25mhsjMmbrUKY-32" edge="1">
          <mxGeometry width="50" height="50" relative="1" as="geometry">
            <mxPoint x="-160" y="690" as="sourcePoint"/>
            <mxPoint x="-110" y="640" as="targetPoint"/>
          </mxGeometry>
        </mxCell>
        <mxCell id="FA39KNH25mhsjMmbrUKY-40" value="是&lt;br&gt;" style="endArrow=classic;html=1;entryX=1;entryY=0.5;entryDx=0;entryDy=0;rounded=0;" parent="77e6c97f196da883-4" source="FA39KNH25mhsjMmbrUKY-32" target="77e6c97f196da883-12" edge="1">
          <mxGeometry width="50" height="50" relative="1" as="geometry">
            <mxPoint x="-160" y="710" as="sourcePoint"/>
            <mxPoint x="-110" y="660" as="targetPoint"/>
            <Array as="points">
              <mxPoint x="210" y="470"/>
              <mxPoint x="210" y="70"/>
            </Array>
          </mxGeometry>
        </mxCell>
        <mxCell id="FA39KNH25mhsjMmbrUKY-41" value="撤件" style="rounded=1;whiteSpace=wrap;html=1;shadow=0;labelBackgroundColor=none;strokeWidth=1;fontFamily=Verdana;fontSize=8;align=center;" parent="77e6c97f196da883-4" vertex="1">
          <mxGeometry x="30" y="540" width="100" height="40" as="geometry"/>
        </mxCell>
        <mxCell id="FA39KNH25mhsjMmbrUKY-42" value="否&lt;br&gt;" style="endArrow=classic;html=1;" parent="77e6c97f196da883-4" source="FA39KNH25mhsjMmbrUKY-32" target="FA39KNH25mhsjMmbrUKY-41" edge="1">
          <mxGeometry width="50" height="50" relative="1" as="geometry">
            <mxPoint x="-160" y="690" as="sourcePoint"/>
            <mxPoint x="-110" y="640" as="targetPoint"/>
            <mxPoint as="offset"/>
          </mxGeometry>
        </mxCell>
      </root>
    </mxGraphModel>
  </diagram>
</mxfile>
